<?xml version="1.0" encoding="utf-8"?>
<!-- Generator: Adobe Illustrator 23.0.1, SVG Export Plug-In . SVG Version: 6.00 Build 0)  -->
<svg version="1.1" id="layer" xmlns="http://www.w3.org/2000/svg" xmlns:xlink="http://www.w3.org/1999/xlink" x="0px" y="0px"
	 viewBox="0 0 600 246.6" style="enable-background:new 0 0 600 246.6;" xml:space="preserve">
<style type="text/css">
	.st0{fill:#FFD800;}
</style>
<polygon points="26.8,208.4 26.8,245.7 49.6,245.7 49.6,240 33.2,240 33.2,208.4 "/>
<polygon points="96.8,208.4 96.8,245.7 119.7,245.7 119.7,240 103.2,240 103.2,229.7 118.1,229.7 118.1,224 103.2,224 103.2,214.2 
	119.7,214.2 119.7,208.4 "/>
<path d="M182.7,219.7l5.3,12.5h-10.6L182.7,219.7z M182.4,207.9l-17.2,37.8h6.6l3.6-8.4h14.8l3.5,8.4h6.8l-17.2-37.8H182.4z"/>
<g>
	<path d="M274.4,245.8H267l-8.1-13.5c-0.3,0.1-0.7,0.1-1,0.1h-1c-0.6,0-1.3,0-1.9,0s-1.2,0-1.8-0.1v13.5h-6.5v-37.1
		c1.5-0.2,3-0.4,4.6-0.5s3.4-0.2,5.3-0.2c2.6,0,4.9,0.3,6.8,0.9s3.5,1.5,4.8,2.5c1.3,1.1,2.2,2.3,2.8,3.7c0.6,1.4,0.9,3,0.9,4.6
		c0,2.4-0.6,4.6-1.9,6.5s-3.1,3.3-5.4,4.4L274.4,245.8z M263.1,215.6c-1.4-1.2-3.3-1.8-5.7-1.8c-0.8,0-1.5,0-2.2,0.1
		c-0.7,0-1.4,0.1-2,0.3V227c0.6,0.1,1.2,0.2,1.8,0.2c0.6,0,1.2,0,1.9,0c2.8,0,4.9-0.6,6.3-1.8c1.4-1.2,2.1-2.9,2.1-5.1
		C265.2,218.3,264.5,216.8,263.1,215.6"/>
	<polygon points="351,246.6 327.6,221.8 327.6,245.8 321.2,245.8 321.2,207.9 322.2,207.7 345.3,232.1 345.3,208.4 351.7,208.4 
		351.7,246.4 	"/>
	<polygon points="408.7,245.8 402.3,245.8 402.3,233.4 402.3,208.4 408.7,208.4 	"/>
	<polygon points="489.2,246.6 465.8,221.8 465.8,245.8 459.4,245.8 459.4,207.9 460.4,207.7 483.5,232.1 483.5,208.4 489.9,208.4 
		489.9,246.4 	"/>
	<path d="M572.8,226v16.4c-2,1.3-4.1,2.3-6.4,3c-2.3,0.7-4.8,1.1-7.6,1.1c-2.7,0-5.2-0.5-7.6-1.4c-2.4-0.9-4.5-2.2-6.3-3.9
		c-1.8-1.7-3.3-3.7-4.3-6.1c-1.1-2.4-1.6-5-1.6-7.9s0.5-5.5,1.6-7.9s2.5-4.4,4.4-6.1c1.8-1.7,4-3,6.4-3.9s4.9-1.4,7.6-1.4
		c2.8,0,5.2,0.3,7.3,1.1c2.1,0.7,4.1,1.7,6,2.8l-2.9,5.1c-1.5-1-3.2-1.8-4.9-2.3c-1.7-0.6-3.5-0.8-5.2-0.8c-2.1,0-4,0.4-5.7,1.1
		s-3.1,1.7-4.2,2.9c-1.1,1.2-2,2.6-2.6,4.3c-0.6,1.6-0.9,3.4-0.9,5.2c0,2,0.3,3.8,1,5.5s1.6,3.1,2.8,4.3c1.2,1.2,2.6,2.1,4.2,2.8
		c1.6,0.7,3.4,1,5.2,1c1.6,0,3-0.1,4.1-0.4c1.2-0.3,2.3-0.7,3.4-1.3v-7.5h-8.7v-5.6h14.9V226z"/>
	<path class="st0" d="M0,176.2h123.3V0H0V176.2z M105.7,158.6H17.6v-141h88.1V158.6z"/>
	<path d="M205,79.1h-7.6c-10-14.1-19.9-28.1-29.8-44h-0.1v44h-8.4V17.7h7.6c10,14,19.9,27.9,29.7,43.7h0.2V17.7h8.4L205,79.1
		L205,79.1z"/>
	<path d="M225,54.8c2.4-8,4.9-15.5,7.1-25h0.2c2.5,9.5,4.6,16.9,6.9,25H225z M229,17.7L207.8,79h9.1l5.3-16.7h18.5l4.8,16.7h11.7
		l-19.5-61.3H229z"/>
	<polygon points="267.2,79.1 267.2,26 251.1,26 251.1,17.7 293.8,17.7 293.8,26 277.7,26 277.7,79.1 	"/>
	<polygon points="297.2,79.1 297.2,48.4 297.2,17.7 307.7,17.7 307.7,48.4 307.7,79.1 	"/>
	<path d="M340.1,71.3c-11,0-14.8-12.1-14.8-23.8c0-11.3,4.4-22.1,14.8-22.1s14.8,10.8,14.8,22.1C354.9,59.3,351,71.3,340.1,71.3
		 M340.1,80.1c16,0,26-14.3,26-32.6c0-17.2-11.1-30.9-26-30.9c-15,0-26,13.7-26,30.9C314,65.8,324,80.1,340.1,80.1"/>
	<path d="M418.4,79.1h-7.6c-10-14.1-19.9-28.1-29.8-44h-0.1v44h-8.4V17.7h7.6c10,14,19.9,27.9,29.7,43.7h0.2V17.7h8.4L418.4,79.1
		L418.4,79.1z"/>
	<path d="M438.4,54.8c2.5-8,4.9-15.5,7.1-25h0.2c2.5,9.5,4.6,16.9,6.9,25H438.4z M442.4,17.7L421.2,79h9.1l5.3-16.7h18.5l4.8,16.7
		h11.8l-19.6-61.3H442.4z"/>
	<polygon points="473.7,17.7 484.2,17.7 484.2,70.8 504.9,70.8 504.9,79.1 473.7,79.1 	"/>
	<path d="M198.5,130.4v25.3c-5.6,2.2-11.5,3.8-17.4,3.8c-18,0-29.4-14-29.4-32c0-16.7,11.4-31.4,29.8-31.4c5.7,0,11.4,2.1,14.9,4.7
		l-3.4,7.3c-2.8-1.8-7.2-3.2-11.2-3.2c-11.2,0-18.8,8.8-18.8,22.8c0,14.5,8.8,23.1,17.8,23.1c2.8,0,5.2-0.4,7.4-1.5v-18.8
		L198.5,130.4L198.5,130.4z"/>
	<polygon points="236.1,105.3 218.6,105.3 218.6,122.1 235.7,122.1 235.7,130.4 218.6,130.4 218.6,150.1 239.2,150.1 239.2,158.4 
		208.1,158.4 208.1,97.1 236.1,97.1 	"/>
	<path d="M268.5,150.7c-11,0-14.8-12.1-14.8-23.8c0-11.3,4.4-22.1,14.8-22.1s14.8,10.8,14.8,22.1
		C283.3,138.6,279.5,150.7,268.5,150.7 M268.5,159.4c16,0,26-14.3,26-32.6c0-17.2-11-30.9-26-30.9c-15,0-26,13.7-26,30.9
		C242.5,145.2,252.5,159.4,268.5,159.4"/>
	<path d="M345,130.4v25.3c-5.6,2.2-11.5,3.8-17.4,3.8c-18,0-29.4-14-29.4-32c0-16.7,11.4-31.4,29.8-31.4c5.7,0,11.4,2.1,14.9,4.7
		l-3.4,7.3c-2.8-1.8-7.2-3.2-11.2-3.2c-11.2,0-18.8,8.8-18.8,22.8c0,14.5,8.8,23.1,17.8,23.1c2.8,0,5.2-0.4,7.4-1.5v-18.8L345,130.4
		L345,130.4z"/>
	<path d="M365.1,105.3h4.6c6.2,0,9.7,3.6,9.7,9.9c0,8.2-5,11.9-10,12.2c-1,0.1-3.5,0.2-4.4,0.3L365.1,105.3L365.1,105.3z
		 M391.8,158.4L379.5,133c6.7-3.6,10.6-10.9,10.6-18.2c0-11.9-7.3-17.7-19-17.7h-16.4v61.3h10.5v-23.1h4.6h0.2l9.9,23.1L391.8,158.4
		L391.8,158.4z"/>
	<path d="M409.1,134.1c2.5-8,4.9-15.5,7.1-25h0.2c2.5,9.5,4.6,16.9,6.9,25H409.1z M413.1,97.1l-21.2,61.3h9.1l5.3-16.7h18.5
		l4.8,16.7h11.7l-19.5-61.3H413.1z"/>
	<path d="M461.1,97.1h-16.4v61.3h10.5v-23.1h4.7c12.5,0,20.2-10.2,20.2-20.5C480.2,102.9,472.9,97.1,461.1,97.1 M459.7,127.4
		c-1.1,0.1-3.6,0.2-4.4,0.2v-22.3h4.7c6.1,0,9.6,3.6,9.6,9.9C469.6,123.4,464.6,127.1,459.7,127.4"/>
	<polygon points="528.9,158.4 518.3,158.4 518.3,128.9 496.5,128.9 496.5,158.4 486.1,158.4 486.1,97.1 496.5,97.1 496.5,120.6 
		518.3,120.6 518.3,97.2 528.9,97.2 	"/>
	<polygon points="538.9,158.4 538.9,127.7 538.9,97.1 549.4,97.1 549.4,127.7 549.4,158.4 	"/>
	<path d="M596.7,108.2c-2.5-1.6-6.7-3.4-10.8-3.4c-10.7,0-18.5,8.8-18.5,22.8c0,14.5,8.6,23.1,18.7,23.1c4,0,7.8-1.3,10.5-3.1
		l2.9,7.6c-3.1,2.2-8.8,4.2-13.8,4.2c-18,0-29.4-14-29.4-32.1c0-16.7,11.3-31.4,29.6-31.4c5.4,0,10.5,2.3,14.1,4.7L596.7,108.2z"/>
</g>
</svg>
