<?xml version="1.0" encoding="utf-8"?>
<!-- Generator: Adobe Illustrator 23.0.1, SVG Export Plug-In . SVG Version: 6.00 Build 0)  -->
<svg version="1.1" id="Layer_1" xmlns="http://www.w3.org/2000/svg" xmlns:xlink="http://www.w3.org/1999/xlink" x="0px" y="0px"
	 viewBox="0 0 670 569.8" style="enable-background:new 0 0 670 569.8;" xml:space="preserve">
<style type="text/css">
	.st0{fill:#014A68;}
	.st1{enable-background:new    ;}
	.st2{fill:#87888A;}
</style>
<title>path_logo</title>
<g id="Path">
	<path class="st0" d="M596.2,91.9v75h-59V4.5h-66.9v87.8c-15.4,0-283,1.6-283,1.6C201.7-31.7,6.8,10.3,6.8,10.3v243.2
		c0,0,4.9,52.8,65,52.8v-141c0,0,47,7.5,90-14.5c0,0,77.4-20.4,77.4,19.7c0,0-114.3-14.4-114.3,69.2s115.5,74.1,174.7,55.4
		c0,0,4.1-146.3-4-150.5h56.1v163.2c0,0,9.2,53.5,66.9,48.4V144.4h51.9v112.2c0,0,3.3,49.9,66.4,49.9V226h59.4v29.7
		c0,0,3.3,50.2,65.8,50.2v-214H596.2z M72.1,116V56.6c0,0,50-9.3,50,29.7S72.1,116,72.1,116z M238.4,257c0,0-55.3,8.2-55.3-21.7
		s55.3-22.5,55.3-22.5V257z"/>
</g>
<g>
	<g class="st1">
		<path class="st2" d="M12.5,475.2H4v-63.1h8.5V475.2z"/>
		<path class="st2" d="M33.7,412.5c0.4,0.2,0.8,0.6,1.3,1.2l36.5,47.5c-0.1-0.8-0.1-1.5-0.2-2.2c0-0.7,0-1.4,0-2.1v-44.7h7.5v63.1
			h-4.3c-0.7,0-1.2-0.1-1.7-0.4c-0.5-0.2-0.9-0.6-1.3-1.2l-36.5-47.5c0.1,0.7,0.1,1.5,0.1,2.2s0,1.3,0,1.9v44.9h-7.5v-63.1H32
			C32.8,412.2,33.4,412.3,33.7,412.5z"/>
		<path class="st2" d="M135.3,412.2v7.2H115v55.9h-8.5v-55.9H86v-7.2H135.3z"/>
		<path class="st2" d="M181.4,412.2v7h-30.3v20.9h24.5v6.7h-24.5v21.5h30.3v7h-38.9v-63.1H181.4z"/>
		<path class="st2" d="M201.3,448.9v26.3h-8.5v-63.1h17.8c4,0,7.4,0.4,10.3,1.2c2.9,0.8,5.3,2,7.2,3.5s3.3,3.4,4.2,5.5
			c0.9,2.2,1.4,4.6,1.4,7.2c0,2.2-0.4,4.3-1.1,6.2c-0.7,1.9-1.7,3.7-3.1,5.2c-1.3,1.5-3,2.9-4.9,3.9c-1.9,1.1-4.1,1.9-6.5,2.5
			c1.1,0.6,2,1.5,2.8,2.7l18.4,25h-7.6c-1.6,0-2.7-0.6-3.4-1.8L212,450.9c-0.5-0.7-1-1.2-1.6-1.5c-0.6-0.3-1.5-0.5-2.6-0.5H201.3z
			 M201.3,442.7h8.9c2.5,0,4.7-0.3,6.6-0.9c1.9-0.6,3.5-1.5,4.8-2.6c1.3-1.1,2.2-2.4,2.9-3.9c0.6-1.5,1-3.2,1-5.1
			c0-3.8-1.2-6.6-3.7-8.5c-2.5-1.9-6.2-2.9-11.1-2.9h-9.3V442.7z"/>
		<path class="st2" d="M252.9,412.5c0.4,0.2,0.8,0.6,1.3,1.2l36.5,47.5c-0.1-0.8-0.1-1.5-0.2-2.2c0-0.7,0-1.4,0-2.1v-44.7h7.5v63.1
			h-4.3c-0.7,0-1.2-0.1-1.7-0.4c-0.5-0.2-0.9-0.6-1.3-1.2l-36.5-47.5c0.1,0.7,0.1,1.5,0.1,2.2s0,1.3,0,1.9v44.9h-7.5v-63.1h4.4
			C252,412.2,252.6,412.3,252.9,412.5z"/>
	</g>
	<g class="st1">
		<path class="st2" d="M363.5,475.2h-6.6c-0.8,0-1.4-0.2-1.8-0.6c-0.5-0.4-0.8-0.9-1.1-1.5l-5.9-15.2h-28.3l-5.9,15.2
			c-0.2,0.5-0.6,1-1.1,1.4c-0.5,0.4-1.1,0.6-1.8,0.6h-6.6l25.2-63.1h8.7L363.5,475.2z M322.2,451.8h23.5l-9.9-25.7
			c-0.6-1.6-1.3-3.6-1.9-5.9c-0.3,1.2-0.6,2.3-0.9,3.3c-0.3,1-0.6,1.9-0.9,2.7L322.2,451.8z"/>
	</g>
	<g class="st1">
		<path class="st2" d="M406.8,412.2v7.2h-20.4v55.9h-8.5v-55.9h-20.5v-7.2H406.8z"/>
		<path class="st2" d="M424.2,475.2h-8.5v-63.1h8.5V475.2z"/>
		<path class="st2" d="M497.9,443.7c0,4.7-0.7,9.1-2.2,13s-3.6,7.3-6.3,10.2c-2.7,2.8-6,5.1-9.8,6.6c-3.8,1.6-8.1,2.4-12.7,2.4
			s-8.9-0.8-12.7-2.4c-3.8-1.6-7.1-3.8-9.8-6.6c-2.7-2.8-4.8-6.2-6.3-10.2s-2.2-8.3-2.2-13s0.7-9.1,2.2-13s3.6-7.3,6.3-10.2
			c2.7-2.9,6-5.1,9.8-6.7c3.8-1.6,8-2.4,12.7-2.4s8.9,0.8,12.7,2.4c3.8,1.6,7.1,3.8,9.8,6.7c2.7,2.9,4.8,6.3,6.3,10.2
			S497.9,439,497.9,443.7z M489.1,443.7c0-3.9-0.5-7.3-1.6-10.4c-1.1-3.1-2.6-5.7-4.5-7.8c-1.9-2.1-4.3-3.8-7-4.9
			c-2.8-1.1-5.8-1.7-9.2-1.7c-3.4,0-6.4,0.6-9.2,1.7c-2.8,1.1-5.1,2.8-7.1,4.9c-2,2.1-3.5,4.7-4.5,7.8c-1.1,3.1-1.6,6.6-1.6,10.4
			s0.5,7.3,1.6,10.4c1.1,3.1,2.6,5.7,4.5,7.8c2,2.1,4.3,3.8,7.1,4.9c2.8,1.1,5.8,1.7,9.2,1.7c3.4,0,6.5-0.6,9.2-1.7
			c2.8-1.1,5.1-2.8,7-4.9c1.9-2.1,3.4-4.7,4.5-7.8C488.6,451.1,489.1,447.6,489.1,443.7z"/>
		<path class="st2" d="M513.8,412.5c0.4,0.2,0.8,0.6,1.3,1.2l36.5,47.5c-0.1-0.8-0.1-1.5-0.2-2.2c0-0.7,0-1.4,0-2.1v-44.7h7.5v63.1
			h-4.3c-0.7,0-1.2-0.1-1.7-0.4c-0.5-0.2-0.9-0.6-1.3-1.2l-36.5-47.5c0.1,0.7,0.1,1.5,0.1,2.2s0,1.3,0,1.9v44.9h-7.5v-63.1h4.4
			C512.9,412.2,513.5,412.3,513.8,412.5z"/>
		<path class="st2" d="M624.4,475.2h-6.6c-0.8,0-1.4-0.2-1.8-0.6c-0.5-0.4-0.8-0.9-1.1-1.5L609,458h-28.3l-5.9,15.2
			c-0.2,0.5-0.6,1-1.1,1.4c-0.5,0.4-1.1,0.6-1.8,0.6h-6.6l25.2-63.1h8.7L624.4,475.2z M583.1,451.8h23.5l-9.9-25.7
			c-0.6-1.6-1.3-3.6-1.9-5.9c-0.3,1.2-0.6,2.3-0.9,3.3c-0.3,1-0.6,1.9-0.9,2.7L583.1,451.8z"/>
		<path class="st2" d="M639.1,468h27.3v7.2h-35.8v-63.1h8.5V468z"/>
	</g>
	<g class="st1">
		<path class="st2" d="M41.2,503.8v7H11v20.9h24.5v6.7H11v21.5h30.3v7H2.4v-63.1H41.2z"/>
		<path class="st2" d="M69,534.4l-20.8-30.7h8.5c0.6,0,1.1,0.1,1.4,0.3c0.3,0.2,0.6,0.5,0.8,0.9l16.5,25.3c0.2-0.6,0.5-1.3,0.9-2
			l15.5-23.1c0.3-0.4,0.5-0.7,0.9-1s0.7-0.4,1.1-0.4h8.1L81,534l21.6,32.8h-8.4c-0.6,0-1.2-0.2-1.5-0.5c-0.4-0.3-0.7-0.7-0.9-1.1
			l-16.9-26.4c-0.2,0.6-0.5,1.2-0.8,1.8l-16.5,24.7c-0.3,0.4-0.6,0.8-0.9,1.1c-0.3,0.3-0.8,0.5-1.4,0.5h-7.9L69,534.4z"/>
		<path class="st2" d="M163.7,566.8h-6.6c-0.8,0-1.4-0.2-1.8-0.6c-0.5-0.4-0.8-0.9-1.1-1.5l-5.9-15.2H120l-5.9,15.2
			c-0.2,0.5-0.6,1-1.1,1.4c-0.5,0.4-1.1,0.6-1.8,0.6h-6.6l25.2-63.1h8.7L163.7,566.8z M122.4,543.4h23.5l-9.9-25.7
			c-0.6-1.6-1.3-3.6-1.9-5.9c-0.3,1.2-0.6,2.3-0.9,3.3c-0.3,1-0.6,1.9-0.9,2.7L122.4,543.4z"/>
		<path class="st2" d="M204.7,546.3c0.3,0.8,0.6,1.6,0.9,2.4c0.3-0.8,0.6-1.6,0.9-2.4c0.3-0.7,0.7-1.5,1.1-2.3l21.3-38.8
			c0.4-0.7,0.8-1.1,1.2-1.2c0.4-0.1,1-0.2,1.8-0.2h6.3v63.1h-7.5v-46.3c0-0.6,0-1.3,0-2c0-0.7,0.1-1.4,0.1-2.2l-21.6,39.4
			c-0.7,1.3-1.8,2-3.1,2H205c-1.3,0-2.3-0.7-3.1-2l-22.1-39.6c0.1,0.8,0.2,1.5,0.2,2.2c0,0.7,0.1,1.4,0.1,2v46.3h-7.5v-63.1h6.3
			c0.8,0,1.3,0.1,1.8,0.2c0.4,0.1,0.8,0.6,1.2,1.2l21.8,38.8C204,544.7,204.4,545.5,204.7,546.3z"/>
		<path class="st2" d="M264.5,566.8H256v-63.1h8.5V566.8z"/>
		<path class="st2" d="M288.4,504.1c0.4,0.2,0.8,0.6,1.3,1.2l36.5,47.5c-0.1-0.8-0.1-1.5-0.2-2.2c0-0.7,0-1.4,0-2.1v-44.7h7.5v63.1
			h-4.3c-0.7,0-1.2-0.1-1.7-0.4c-0.5-0.2-0.9-0.6-1.3-1.2l-36.5-47.5c0.1,0.7,0.1,1.5,0.1,2.2s0,1.3,0,1.9v44.9h-7.5v-63.1h4.4
			C287.5,503.8,288,503.9,288.4,504.1z"/>
	</g>
	<g class="st1">
		<path class="st2" d="M401.6,566.8H395c-0.8,0-1.4-0.2-1.8-0.6c-0.5-0.4-0.8-0.9-1.1-1.5l-5.9-15.2h-28.3l-5.9,15.2
			c-0.2,0.5-0.6,1-1.1,1.4c-0.5,0.4-1.1,0.6-1.8,0.6h-6.6l25.2-63.1h8.7L401.6,566.8z M360.3,543.4h23.5l-9.9-25.7
			c-0.6-1.6-1.3-3.6-1.9-5.9c-0.3,1.2-0.6,2.3-0.9,3.3c-0.3,1-0.6,1.9-0.9,2.7L360.3,543.4z"/>
	</g>
	<g class="st1">
		<path class="st2" d="M447.6,503.8v7.2h-20.4v55.9h-8.5v-55.9h-20.5v-7.2H447.6z"/>
		<path class="st2" d="M467.5,566.8H459v-63.1h8.5V566.8z"/>
		<path class="st2" d="M543.9,535.3c0,4.7-0.7,9.1-2.2,13s-3.6,7.3-6.3,10.2c-2.7,2.8-6,5.1-9.8,6.6c-3.8,1.6-8.1,2.4-12.7,2.4
			s-8.9-0.8-12.7-2.4c-3.8-1.6-7.1-3.8-9.8-6.6c-2.7-2.8-4.8-6.2-6.3-10.2s-2.2-8.3-2.2-13s0.7-9.1,2.2-13s3.6-7.3,6.3-10.2
			c2.7-2.9,6-5.1,9.8-6.7s8-2.4,12.7-2.4s8.9,0.8,12.7,2.4s7.1,3.8,9.8,6.7s4.8,6.3,6.3,10.2S543.9,530.6,543.9,535.3z M535.1,535.3
			c0-3.9-0.5-7.3-1.6-10.4c-1.1-3.1-2.6-5.7-4.5-7.8c-1.9-2.1-4.3-3.8-7-4.9c-2.8-1.1-5.8-1.7-9.2-1.7c-3.4,0-6.4,0.6-9.2,1.7
			c-2.8,1.1-5.1,2.8-7.1,4.9c-2,2.1-3.5,4.7-4.5,7.8s-1.6,6.6-1.6,10.4s0.5,7.3,1.6,10.4s2.6,5.7,4.5,7.8c2,2.1,4.3,3.8,7.1,4.9
			s5.8,1.7,9.2,1.7c3.4,0,6.5-0.6,9.2-1.7c2.8-1.1,5.1-2.8,7-4.9s3.4-4.7,4.5-7.8C534.6,542.7,535.1,539.2,535.1,535.3z"/>
		<path class="st2" d="M562.5,504.1c0.4,0.2,0.8,0.6,1.3,1.2l36.5,47.5c-0.1-0.8-0.1-1.5-0.2-2.2s0-1.4,0-2.1v-44.7h7.5v63.1h-4.3
			c-0.7,0-1.2-0.1-1.7-0.4c-0.5-0.2-0.9-0.6-1.3-1.2l-36.5-47.5c0.1,0.7,0.1,1.5,0.1,2.2s0,1.3,0,1.9v44.9h-7.5v-63.1h4.4
			C561.6,503.8,562.1,503.9,562.5,504.1z"/>
		<path class="st2" d="M656.1,513.6c-0.3,0.4-0.5,0.8-0.8,1s-0.7,0.3-1.1,0.3c-0.5,0-1.1-0.2-1.7-0.7c-0.7-0.5-1.5-1-2.5-1.7
			c-1-0.6-2.2-1.2-3.7-1.6c-1.4-0.5-3.1-0.7-5.2-0.7c-1.9,0-3.6,0.3-5.1,0.8c-1.5,0.5-2.7,1.2-3.7,2.1c-1,0.9-1.7,1.9-2.2,3.1
			c-0.5,1.2-0.7,2.5-0.7,3.8c0,1.8,0.4,3.2,1.3,4.4c0.9,1.2,2,2.1,3.4,3c1.4,0.8,3,1.5,4.8,2.1c1.8,0.6,3.7,1.2,5.5,1.9
			s3.7,1.4,5.5,2.2c1.8,0.8,3.4,1.8,4.8,3.1c1.4,1.2,2.6,2.7,3.4,4.5c0.9,1.8,1.3,4,1.3,6.6c0,2.8-0.5,5.3-1.4,7.8
			c-0.9,2.4-2.3,4.5-4.1,6.3s-4,3.2-6.6,4.2c-2.6,1-5.6,1.5-9,1.5c-4.1,0-7.8-0.7-11.2-2.2s-6.2-3.5-8.6-6l2.5-4
			c0.2-0.3,0.5-0.6,0.9-0.8c0.3-0.2,0.7-0.3,1.1-0.3c0.6,0,1.3,0.3,2.1,1c0.8,0.7,1.8,1.4,3,2.2c1.2,0.8,2.6,1.5,4.3,2.2
			c1.7,0.7,3.7,1,6.2,1c2,0,3.8-0.3,5.4-0.8c1.6-0.6,2.9-1.3,4-2.4c1.1-1,1.9-2.2,2.5-3.6s0.9-3,0.9-4.7c0-1.9-0.4-3.5-1.3-4.7
			c-0.9-1.2-2-2.2-3.4-3.1c-1.4-0.8-3-1.5-4.8-2.1s-3.7-1.2-5.5-1.8c-1.9-0.6-3.7-1.3-5.5-2.1s-3.4-1.8-4.8-3.1
			c-1.4-1.3-2.5-2.8-3.4-4.7c-0.9-1.9-1.3-4.2-1.3-7c0-2.2,0.4-4.4,1.3-6.5c0.9-2.1,2.1-3.9,3.8-5.5c1.6-1.6,3.7-2.9,6.1-3.9
			c2.4-1,5.2-1.5,8.3-1.5c3.5,0,6.7,0.6,9.6,1.7c2.9,1.1,5.4,2.7,7.6,4.8L656.1,513.6z"/>
	</g>
</g>
</svg>
