<svg id="Layer_1" data-name="Layer 1" xmlns="http://www.w3.org/2000/svg" viewBox="0 0 670.05 569.83"><title>path_logo</title><g id="Path"><path d="M470.32,92.29V4.52h66.87V166.86h59v-75h66v214c-62.47,0-65.77-50.16-65.77-50.16V226H537v80.51c-63.13,0-66.43-49.94-66.43-49.94V144.42H418.63V356.25c-57.63,5.06-66.87-48.43-66.87-48.43V144.64H295.67c8.14,4.18,4,150.46,4,150.46C240.46,313.8,125,323.25,125,239.67s114.25-69.16,114.25-69.16c0-40.17-77.44-19.74-77.44-19.74-43,22-90,14.51-90,14.51l0,141c-60.08,0-65-52.8-65-52.8V10.31s194.85-42,180.55,83.6C187.31,93.91,454.93,92.29,470.32,92.29Z" fill="#014a68"/><path d="M72.07,56.59v59.46s50,9.25,50-29.73S72.07,56.59,72.07,56.59Z" fill="#fff"/><path d="M238.41,212.85s-55.26-7.44-55.26,22.46S238.41,257,238.41,257Z" fill="#fff"/></g><g id="subTitle"><text transform="translate(-5.28 475.22)" font-size="88" fill="#87888a" font-family="Lato-Regular, Lato" letter-spacing="-0.02em">INTERN<tspan x="309.23" y="0" letter-spacing="-0.09em">A</tspan><tspan x="361.5" y="0">TIONAL</tspan><tspan letter-spacing="0.01em"><tspan x="0" y="91.6">EXAMIN</tspan><tspan x="347.33" y="91.6" letter-spacing="-0.06em">A</tspan><tspan x="402.24" y="91.6">TIONS</tspan></tspan></text></g></svg>