<svg id="Layer_1" data-name="Layer 1" xmlns="http://www.w3.org/2000/svg" viewBox="0 0 670 356.54"><title>path_natgeo</title><g id="Path"><path d="M596.2,91.9v75h-59V4.5H470.3V92.3c-15.4,0-283,1.6-283,1.6C201.7-31.7,6.8,10.3,6.8,10.3V253.5s4.9,52.8,65,52.8v-141s47,7.5,90-14.5c0,0,77.4-20.4,77.4,19.7,0,0-114.3-14.4-114.3,69.2s115.5,74.1,174.7,55.4c0,0,4.1-146.3-4-150.5h56.1V307.8s9.2,53.5,66.9,48.4V144.4h51.9V256.6s3.3,49.9,66.4,49.9V226h59.4v29.7s3.3,50.2,65.8,50.2V91.9ZM72.1,116V56.6s50-9.3,50,29.7S72.1,116,72.1,116ZM238.4,257s-55.3,8.2-55.3-21.7,55.3-22.5,55.3-22.5Z" fill="#014a68"/></g></svg>