<svg id="Layer_1" data-name="Layer 1" xmlns="http://www.w3.org/2000/svg" viewBox="0 0 1415.8 356.59"><title>path_logo-mob</title><path d="M596.14,90.07v75H537.19V2.74H470.32V90.51c-15.4,0-283,1.63-283,1.63C201.6-33.48,6.76,8.53,6.76,8.53V251.71s4.89,52.8,65,52.8l0-141s47,7.49,90-14.51c0,0,77.45-20.43,77.45,19.74,0,0-114.25-14.43-114.25,69.16S240.45,312,299.62,293.32c0,0,4.18-146.28-4-150.46h56.1V306s9.23,53.49,66.87,48.43V142.64h51.91V254.83s3.3,49.93,66.43,49.93V224.25h59.39V254s3.3,50.15,65.77,50.15v-214ZM72.07,114.27V54.81s50-9.25,50,29.73S72.07,114.27,72.07,114.27ZM238.41,255.18s-55.27,8.25-55.27-21.65,55.27-22.46,55.27-22.46Z" fill="#014a68"/><g id="subTitle"><text transform="translate(740.47 163.42)" font-size="88" fill="#87888a" font-family="Lato-Regular, Lato" letter-spacing="-0.02em">INTERN<tspan x="309.23" y="0" letter-spacing="-0.09em">A</tspan><tspan x="361.5" y="0">TIONAL</tspan><tspan letter-spacing="0.01em"><tspan x="0" y="91.6">EXAMIN</tspan><tspan x="347.33" y="91.6" letter-spacing="-0.06em">A</tspan><tspan x="402.24" y="91.6">TIONS</tspan></tspan></text></g></svg>